Coordinates
version=1
nRows=4
nColumns=107
inDegrees=yes

Units are S.I. units (second, meters, Newtons, ...)
If the header above contains a line with 'inDegrees', this indicates whether rotational values are in degrees (yes) or radians (no).

endheader
time	sternoclavicular_r2	sternoclavicular_r3	unrotscap_r3	unrotscap_r2	acromioclavicular_r2	acromioclavicular_r3	acromioclavicular_r1	unrothum_r1	unrothum_r3	unrothum_r2	elv_angle	shoulder_elv	shoulder1_r2	shoulder_rot	elbow_flexion	pro_sup	deviation	flexion	proximal_distal_r1	proximal_distal_r3	cmc_flexion	cmc_abduction	mp_flexion	ip_flexion	mcp2_flexion	mcp2_abduction	pm2_flexion	md2_flexion	mcp3_flexion	mcp3_abduction	pm3_flexion	md3_flexion	mcp4_flexion	mcp4_abduction	pm4_flexion	md4_flexion	mcp5_flexion	mcp5_abduction	pm5_flexion	md5_flexion	bicpt_tx	bicpt_ty	bicpt_tz	bicpt2_tx	bicpt2_ty	bicpt2_tz	ptpt_tx	ptpt_ty	ptpt_tz	FCUpt_tx	FCUpt_ty	FCUpt_tz	EDCpt_tx	EDCpt_ty	EDCpt_tz	APLpt_tx	APLpt_ty	APLpt_tz	FPLpt_tx	FPLpt_ty	FPLpt_tz	FPLpt2_tx	FPLpt2_ty	FPLpt2_tz	PEC1pt2_tx	PEC1pt2_ty	PEC1pt2_tz	PEC1pt3_tx	PEC1pt3_ty	PEC1pt3_tz	PEC2pt2_tx	PEC2pt2_ty	PEC2pt2_tz	PEC2pt3_tx	PEC2pt3_ty	PEC2pt3_tz	PEC3pt2_tx	PEC3pt2_ty	PEC3pt2_tz	PEC3pt3_tx	PEC3pt3_ty	PEC3pt3_tz	DELT2pt2a_tx	DELT2pt2a_ty	DELT2pt2a_tz	DELT2pt2_tx	DELT2pt2_ty	DELT2pt2_tz	LAT1pt2_tx	LAT1pt2_ty	LAT1pt2_tz	LAT1pt3_tx	LAT1pt3_ty	LAT1pt3_tz	LAT2pt2_tx	LAT2pt2_ty	LAT2pt2_tz	LAT2pt3_tx	LAT2pt3_ty	LAT2pt3_tz	LAT3pt2_tx	LAT3pt2_ty	LAT3pt2_tz	LAT3pt3_tx	LAT3pt3_ty	LAT3pt3_tz
      0.86666667	     -0.31378338	      0.13290383	     -0.13290383	      0.31378338	     -0.06353475	      0.51346551	      0.23079921	     -0.23079921	     -0.51346551	      0.06353475	    101.97219786	     74.29100389	     -1.77975060	    -38.39249252	     30.81485218	     85.67865301	      0.35970011	     -0.45688977	      0.38226195	     -0.22844489	     39.11406006	    -13.39906426	     14.00214592	      6.71458765	     73.19706664	     11.99624452	     79.91696495	     73.64704740	     72.43332374	      2.54190634	     81.22141248	     51.80917158	     68.10147617	    -12.50820456	     85.89542069	     44.43402645	     74.51394368	    -14.14662185	     78.54491056	      5.57409432	      0.00091926	     -0.03113185	     -0.00486889	      0.01427302	     -0.01857101	     -0.00113100	      0.00121931	     -0.06899353	     -0.00695188	      0.01270110	     -0.18224860	      0.00007498	     -0.01028141	      0.00356039	     -0.00074693	      0.00029268	      0.00011707	      0.00058536	      0.00037463	      0.00112389	      0.00063219	     -0.00001142	     -0.00012790	     -0.00015348	      0.00243510	      0.00854347	      0.00594329	     -0.00796565	      0.01923313	     -0.01824258	      0.00243510	      0.00854347	      0.00594329	      0.00053655	      0.01782986	     -0.00936893	      0.00387628	      0.00475092	      0.01578980	      0.00000000	      0.00737864	      0.00000000	     -0.00697511	     -0.03223407	     -0.00608168	      0.02212741	     -0.00105252	     -0.01197760	     -0.00086673	      0.01452803	     -0.00594329	      0.00239382	      0.02096659	     -0.01733458	     -0.00581947	      0.01258821	     -0.00532419	     -0.01213421	      0.02657969	     -0.02975770	     -0.02278259	      0.01407403	     -0.00714020	     -0.01510585	      0.03070697	     -0.03718681
      0.90000000	     -0.31336254	      0.13272558	     -0.13272558	      0.31336254	     -0.06344954	      0.51277687	      0.23048967	     -0.23048967	     -0.51277687	      0.06344954	    102.10128677	     74.19136793	     -1.78200362	    -38.79540397	     30.86734423	     86.15400344	      0.35490328	     -0.42082215	      0.37855769	     -0.21041108	     38.80741000	    -13.87797533	     13.35255316	      6.42026464	     65.37242097	     11.93633132	     75.70718039	     72.18745715	     64.84209883	      2.94140478	     77.70069348	     50.49187973	     60.92535283	    -12.07167834	     81.83281961	     43.54489133	     66.85209725	    -14.17095597	     74.42723033	      5.57703120	      0.00092100	     -0.03113787	     -0.00486986	      0.01422397	     -0.01858527	     -0.00104966	      0.00118419	     -0.06901624	     -0.00699017	      0.01275569	     -0.18223252	      0.00008804	     -0.01033846	      0.00358647	     -0.00076217	      0.00028230	      0.00011292	      0.00056460	      0.00036134	      0.00108403	      0.00060977	     -0.00001169	     -0.00013351	     -0.00016022	      0.00243183	      0.00853201	      0.00593531	     -0.00795497	      0.01920734	     -0.01821812	      0.00243183	      0.00853201	      0.00593531	      0.00053583	      0.01780594	     -0.00935636	      0.00387244	      0.00474454	      0.01578012	      0.00000000	      0.00735873	      0.00000000	     -0.00696575	     -0.03219084	     -0.00606515	      0.02225966	     -0.00106710	     -0.01221050	     -0.00086557	      0.01450855	     -0.00593531	      0.00239061	      0.02093847	     -0.01731133	     -0.00581166	      0.01257133	     -0.00531705	     -0.01211793	      0.02654405	     -0.02971779	     -0.02275204	      0.01405515	     -0.00713062	     -0.01508559	      0.03066579	     -0.03713693
      0.93333333	     -0.31231852	      0.13228338	     -0.13228338	      0.31231852	     -0.06323815	      0.51106846	      0.22972176	     -0.22972176	     -0.51106846	      0.06323815	    102.11630807	     73.94418585	     -1.78226580	    -39.17400852	     31.41429888	     86.75532506	      0.36333132	     -0.31400296	      0.38504124	     -0.15700148	     37.86347925	    -14.33365406	     13.03590541	      6.67119617	     55.33550757	     11.64216812	     69.77196674	     67.90759922	     54.89308469	      3.32649919	     72.60367037	     47.43213864	     51.12209860	    -11.16726604	     76.91633350	     42.23545938	     55.54429630	    -14.16039693	     69.78797698	      5.54606621	      0.00093909	     -0.03120056	     -0.00487996	      0.01416119	     -0.01873385	     -0.00094630	      0.00113976	     -0.06904497	     -0.00703861	      0.01282486	     -0.18221208	      0.00010481	     -0.01041061	      0.00361955	     -0.00078162	      0.00023871	      0.00009549	      0.00047743	      0.00030555	      0.00091666	      0.00051562	     -0.00001234	     -0.00015013	     -0.00018016	      0.00242373	      0.00850359	      0.00591554	     -0.00792847	      0.01914334	     -0.01815742	      0.00242373	      0.00850359	      0.00591554	      0.00053404	      0.01774662	     -0.00932519	      0.00386289	      0.00472874	      0.01575599	      0.00000000	      0.00730947	      0.00000000	     -0.00694254	     -0.03208359	     -0.00602423	      0.02238198	     -0.00108082	     -0.01243066	     -0.00086268	      0.01446021	     -0.00591554	      0.00238265	      0.02086871	     -0.01725366	     -0.00579230	      0.01252944	     -0.00529934	     -0.01207756	      0.02645561	     -0.02961878	     -0.02267624	      0.01400833	     -0.00710686	     -0.01503533	      0.03056362	     -0.03701320
      0.96666667	     -0.31112830	      0.13177926	     -0.13177926	      0.31112830	     -0.06299715	      0.50912082	      0.22884631	     -0.22884631	     -0.50912082	      0.06299715	    102.38586032	     73.66239046	     -1.78697037	    -40.19906954	     31.66071927	     86.93358036	      0.35952145	     -0.25327867	      0.38212499	     -0.12663934	     36.87406208	    -14.48668213	     12.62155031	      6.49566273	     45.96958212	     10.81544243	     59.08142190	     60.27832194	     45.26594395	      3.28420554	     63.12704459	     42.85995676	     41.22112936	     -9.80391746	     67.76134100	     38.66459155	     43.85690642	    -14.10364214	     61.16225638	      5.48300449	      0.00094724	     -0.03122880	     -0.00488451	      0.01414241	     -0.01880079	     -0.00091556	      0.00112659	     -0.06905348	     -0.00705297	      0.01284538	     -0.18220600	      0.00010984	     -0.01043201	      0.00362938	     -0.00078743	      0.00020542	      0.00008217	      0.00041084	      0.00026293	      0.00078880	      0.00044370	     -0.00001273	     -0.00016646	     -0.00019976	      0.00241449	      0.00847118	      0.00589300	     -0.00789825	      0.01907039	     -0.01808822	      0.00241449	      0.00847118	      0.00589300	      0.00053201	      0.01767899	     -0.00928965	      0.00385198	      0.00471072	      0.01572830	      0.00000000	      0.00725352	      0.00000000	     -0.00691609	     -0.03196132	     -0.00597774	      0.02270359	     -0.00111811	     -0.01303299	     -0.00085940	      0.01440510	     -0.00589300	      0.00237357	      0.02078918	     -0.01718791	     -0.00577023	      0.01248169	     -0.00527914	     -0.01203153	      0.02635479	     -0.02950590	     -0.02258982	      0.01395494	     -0.00707978	     -0.01497803	      0.03044715	     -0.03687215
